<?xml version="1.0" encoding="UTF-8" standalone="no"?>
<svg
   height="100%"
   style="fill-rule:evenodd;clip-rule:evenodd;stroke-linejoin:round;stroke-miterlimit:2;"
   version="1.1"
   viewBox="0 0 512 512"
   width="100%"
   xml:space="preserve"
   id="svg4"
   sodipodi:docname="medsos.svg"
   inkscape:version="1.1 (1:1.1+202105261517+ce6663b3b7)"
   xmlns:inkscape="http://www.inkscape.org/namespaces/inkscape"
   xmlns:sodipodi="http://sodipodi.sourceforge.net/DTD/sodipodi-0.dtd"
   xmlns:xlink="http://www.w3.org/1999/xlink"
   xmlns="http://www.w3.org/2000/svg"
   xmlns:svg="http://www.w3.org/2000/svg"><defs
     id="defs8"><linearGradient
       gradientTransform="matrix(-149.618,494.3,-494.3,-149.618,300.81,-27.1283)"
       gradientUnits="userSpaceOnUse"
       id="_Linear1"
       x1="0"
       x2="1"
       y1="0"
       y2="0"><stop
         offset="0"
         style="stop-color:#515bd4;stop-opacity:1"
         id="stop836" /><stop
         offset="0.26"
         style="stop-color:#9510b8;stop-opacity:1"
         id="stop838" /><stop
         offset="0.66"
         style="stop-color:#e51804;stop-opacity:1"
         id="stop840" /><stop
         offset="1"
         style="stop-color:#feda77;stop-opacity:1"
         id="stop842" /></linearGradient><linearGradient
       gradientTransform="matrix(-149.618,494.3,-494.3,-149.618,300.81,-27.1283)"
       gradientUnits="userSpaceOnUse"
       id="_Linear2"
       x1="0"
       x2="1"
       y1="0"
       y2="0"><stop
         offset="0"
         style="stop-color:#515bd4;stop-opacity:1"
         id="stop845" /><stop
         offset="0.26"
         style="stop-color:#9510b8;stop-opacity:1"
         id="stop847" /><stop
         offset="0.66"
         style="stop-color:#e51804;stop-opacity:1"
         id="stop849" /><stop
         offset="1"
         style="stop-color:#ffbf00;stop-opacity:1"
         id="stop851" /></linearGradient><linearGradient
       gradientTransform="matrix(0,-512,-512,0,256.001,512)"
       gradientUnits="userSpaceOnUse"
       id="_Linear1-3"
       x1="0"
       x2="1"
       y1="0"
       y2="0"><stop
         offset="0"
         style="stop-color:#25cf43;stop-opacity:1"
         id="stop890" /><stop
         offset="1"
         style="stop-color:#61fd7d;stop-opacity:1"
         id="stop892" /></linearGradient><linearGradient
       inkscape:collect="always"
       xlink:href="#_Linear2"
       id="linearGradient1006"
       gradientUnits="userSpaceOnUse"
       gradientTransform="matrix(-149.618,494.3,-494.3,-149.618,300.81,-27.1283)"
       x1="0"
       y1="0"
       x2="1"
       y2="0" /><linearGradient
       inkscape:collect="always"
       xlink:href="#_Linear2"
       id="linearGradient1008"
       gradientUnits="userSpaceOnUse"
       gradientTransform="matrix(-149.618,494.3,-494.3,-149.618,300.81,-27.1283)"
       x1="0"
       y1="0"
       x2="1"
       y2="0" /></defs><sodipodi:namedview
     id="namedview6"
     pagecolor="#ffffff"
     bordercolor="#eeeeee"
     borderopacity="1"
     inkscape:pageshadow="0"
     inkscape:pageopacity="0"
     inkscape:pagecheckerboard="0"
     showgrid="false"
     inkscape:zoom="5.796875"
     inkscape:cx="-225.38006"
     inkscape:cy="106.26415"
     inkscape:window-width="1920"
     inkscape:window-height="996"
     inkscape:window-x="0"
     inkscape:window-y="28"
     inkscape:window-maximized="1"
     inkscape:current-layer="svg4" /><g
     style="clip-rule:evenodd;fill-rule:evenodd;stroke-width:26.211;stroke-linejoin:round;stroke-miterlimit:2"
     id="g826"
     transform="matrix(0.03815207,0,0,0.03815207,-229.45874,93.581567)"><path
       d="M 449.446,0 C 483.971,0 512,28.03 512,62.554 V 449.446 C 512,483.97 483.97,512 449.446,512 H 342.978 V 319.085 h 66.6 l 12.672,-82.621 h -79.272 v -53.617 c 0,-22.603 11.073,-44.636 46.58,-44.636 H 425.6 v -70.34 c 0,0 -32.71,-5.582 -63.982,-5.582 -65.288,0 -107.96,39.569 -107.96,111.204 v 62.971 h -72.573 v 82.621 h 72.573 V 512 H 62.554 C 28.03,512 0,483.97 0,449.446 V 62.554 C 0,28.03 28.029,0 62.554,0 Z"
       style="fill:#1777f2;stroke-width:26.211"
       id="path2-5" /></g><g
     style="clip-rule:evenodd;fill-rule:evenodd;stroke-width:26.211;stroke-linejoin:round;stroke-miterlimit:2"
     id="g883"
     transform="matrix(0.03815207,0,0,0.03815207,-206.45305,93.581608)"><g
       id="g834"
       style="stroke-width:26.211"><path
         d="M 256,0 C 186.474,0 177.756,0.295 150.451,1.541 123.203,2.784 104.593,7.111 88.309,13.44 71.475,19.982 57.198,28.736 42.967,42.968 28.735,57.199 19.981,71.476 13.439,88.31 7.11,104.593 2.783,123.203 1.54,150.451 0.294,177.756 0,186.474 0,256 c 0,69.524 0.294,78.242 1.54,105.547 1.243,27.248 5.57,45.858 11.899,62.141 6.542,16.834 15.296,31.111 29.528,45.344 14.231,14.231 28.508,22.985 45.342,29.527 16.284,6.328 34.894,10.656 62.142,11.899 27.305,1.245 36.023,1.54 105.549,1.54 69.524,0 78.242,-0.295 105.547,-1.54 27.248,-1.243 45.858,-5.571 62.141,-11.899 16.834,-6.542 31.111,-15.296 45.344,-29.527 14.231,-14.233 22.985,-28.51 29.527,-45.344 6.328,-16.283 10.656,-34.893 11.899,-62.141 1.245,-27.305 1.54,-36.023 1.54,-105.547 0,-69.526 -0.295,-78.244 -1.54,-105.549 C 509.215,123.203 504.887,104.593 498.559,88.31 492.017,71.476 483.263,57.199 469.032,42.968 454.799,28.736 440.522,19.982 423.688,13.44 407.405,7.111 388.795,2.784 361.547,1.541 334.242,0.295 325.524,0 256,0 Z m 0,46.127 c 68.354,0 76.451,0.26 103.445,1.492 24.959,1.139 38.514,5.309 47.535,8.814 11.949,4.644 20.477,10.192 29.435,19.15 8.959,8.958 14.506,17.487 19.15,29.435 3.506,9.021 7.676,22.576 8.815,47.535 1.231,26.995 1.492,35.092 1.492,103.447 0,68.354 -0.261,76.451 -1.492,103.445 -1.139,24.959 -5.309,38.514 -8.815,47.535 -4.644,11.949 -10.191,20.477 -19.15,29.435 -8.958,8.959 -17.486,14.506 -29.435,19.15 -9.021,3.506 -22.576,7.676 -47.535,8.814 -26.99,1.232 -35.086,1.493 -103.445,1.493 -68.361,0 -76.455,-0.261 -103.447,-1.493 -24.959,-1.138 -38.514,-5.308 -47.535,-8.814 C 93.069,450.921 84.541,445.374 75.582,436.415 66.624,427.457 61.076,418.929 56.433,406.98 52.927,397.959 48.757,384.404 47.618,359.445 46.386,332.451 46.126,324.354 46.126,256 c 0,-68.355 0.26,-76.452 1.492,-103.447 1.139,-24.959 5.309,-38.514 8.815,-47.535 4.643,-11.948 10.191,-20.477 19.149,-29.435 8.959,-8.958 17.487,-14.506 29.436,-19.15 9.021,-3.505 22.576,-7.675 47.535,-8.814 26.995,-1.232 35.092,-1.492 103.447,-1.492 z"
         style="fill:url(#_Linear1);fill-rule:nonzero;stroke-width:26.211"
         id="path828" /><path
         d="m 256,341.332 c -47.129,0 -85.334,-38.205 -85.334,-85.332 0,-47.129 38.205,-85.334 85.334,-85.334 47.127,0 85.332,38.205 85.332,85.334 0,47.127 -38.205,85.332 -85.332,85.332 z m 0,-216.792 c -72.604,0 -131.46,58.856 -131.46,131.46 0,72.602 58.856,131.458 131.46,131.458 72.602,0 131.458,-58.856 131.458,-131.458 0,-72.604 -58.856,-131.46 -131.458,-131.46 z"
         style="fill:url(#linearGradient1006);fill-rule:nonzero;stroke-width:26.211"
         id="path830" /><path
         d="m 423.372,119.346 c 0,16.967 -13.754,30.72 -30.72,30.72 -16.966,0 -30.72,-13.753 -30.72,-30.72 0,-16.966 13.754,-30.719 30.72,-30.719 16.966,0 30.72,13.753 30.72,30.719 z"
         style="fill:url(#linearGradient1008);fill-rule:nonzero;stroke-width:26.211"
         id="path832" /></g></g><g
     style="clip-rule:evenodd;fill-rule:evenodd;stroke-width:26.211;stroke-linejoin:round;stroke-miterlimit:2"
     id="g907"
     transform="matrix(0.03815207,0,0,0.03815207,-183.44748,93.581583)"><g
       id="WhatsApp-Logo-Icon"
       style="stroke-width:26.211"><path
         d="m 116.225,-0.001 c -11.264,0.512 -26.112,1.536 -32.768,3.072 -10.24,2.048 -19.968,5.12 -27.648,9.216 -9.728,4.608 -17.92,10.752 -25.088,17.92 -7.68,7.68 -13.824,15.872 -18.432,25.6 -4.096,7.68 -7.168,17.408 -9.216,27.648 -1.536,6.656 -2.56,21.504 -2.56,32.768 -0.512,4.608 -0.512,10.752 -0.512,13.824 v 251.905 13.824 c 0.512,11.264 1.536,26.112 3.072,32.768 2.048,10.24 5.12,19.968 9.216,27.648 4.608,9.728 10.752,17.92 17.92,25.088 7.68,7.68 15.872,13.824 25.6,18.432 7.68,4.096 17.408,7.168 27.648,9.216 6.656,1.536 21.504,2.56 32.768,2.56 4.608,0.512 10.752,0.512 13.824,0.512 h 251.904 13.824 c 11.264,-0.512 26.112,-1.536 32.768,-3.072 10.24,-2.048 19.968,-5.12 27.648,-9.216 9.728,-4.608 17.92,-10.752 25.088,-17.92 7.68,-7.68 13.824,-15.872 18.432,-25.6 4.096,-7.68 7.168,-17.408 9.216,-27.648 1.536,-6.656 2.56,-21.504 2.56,-32.768 0.512,-4.608 0.512,-10.752 0.512,-13.824 V 116.223 c -0.512,-11.264 -1.536,-26.112 -3.072,-32.768 -2.048,-10.24 -5.12,-19.968 -9.216,-27.648 -4.608,-9.728 -10.752,-17.92 -17.92,-25.088 -7.68,-7.68 -15.872,-13.824 -25.6,-18.432 -7.68,-4.096 -17.408,-7.168 -27.648,-9.216 -6.656,-1.536 -21.504,-2.56 -32.768,-2.56 -4.608,-0.512 -10.752,-0.512 -13.824,-0.512 z"
         style="fill:url(#_Linear1-3);fill-rule:nonzero;stroke-width:26.211"
         id="path885" /><path
         d="m 344.754,289.698 c -4.56,-2.282 -26.98,-13.311 -31.161,-14.832 -4.18,-1.521 -7.219,-2.282 -10.259,2.282 -3.041,4.564 -11.78,14.832 -14.44,17.875 -2.66,3.042 -5.32,3.423 -9.88,1.14 -4.561,-2.281 -19.254,-7.095 -36.672,-22.627 -13.556,-12.087 -22.709,-27.017 -25.369,-31.581 -2.66,-4.564 -0.283,-7.031 2,-9.304 2.051,-2.041 4.56,-5.324 6.84,-7.986 2.28,-2.662 3.04,-4.564 4.56,-7.606 1.52,-3.042 0.76,-5.705 -0.38,-7.987 -1.14,-2.282 -10.26,-24.72 -14.06,-33.848 -3.701,-8.889 -7.461,-7.686 -10.26,-7.826 -2.657,-0.132 -5.7,-0.16 -8.74,-0.16 -3.041,0 -7.98,1.141 -12.161,5.704 -4.18,4.564 -15.96,15.594 -15.96,38.032 0,22.438 16.34,44.116 18.62,47.159 2.281,3.043 32.157,49.089 77.902,68.836 10.88,4.697 19.374,7.501 25.997,9.603 10.924,3.469 20.866,2.98 28.723,1.806 8.761,-1.309 26.98,-11.029 30.781,-21.677 3.799,-10.649 3.799,-19.777 2.659,-21.678 -1.139,-1.902 -4.179,-3.043 -8.74,-5.325 m -83.207,113.573 h -0.061 c -27.22,-0.011 -53.917,-7.32 -77.207,-21.137 l -5.539,-3.287 -57.413,15.056 15.325,-55.959 -3.608,-5.736 c -15.184,-24.145 -23.203,-52.051 -23.192,-80.704 0.033,-83.611 68.083,-151.635 151.756,-151.635 40.517,0.016 78.603,15.811 107.243,44.474 28.64,28.663 44.404,66.764 44.389,107.283 -0.035,83.617 -68.083,151.645 -151.693,151.645 M 390.649,122.562 C 356.192,88.076 310.368,69.075 261.546,69.055 c -100.595,0 -182.468,81.841 -182.508,182.437 -0.013,32.156 8.39,63.546 24.361,91.212 l -25.892,94.545 96.75,-25.37 c 26.657,14.535 56.67,22.194 87.216,22.207 h 0.075 c 100.586,0 182.465,-81.852 182.506,-182.448 0.019,-48.751 -18.946,-94.59 -53.405,-129.076"
         style="fill:#ffffff;stroke-width:26.211"
         id="path887" /></g></g><g
     style="clip-rule:evenodd;fill-rule:evenodd;stroke-width:26.211;stroke-linejoin:round;stroke-miterlimit:2"
     id="g924"
     transform="matrix(0.03815207,0,0,0.03815207,-252.46443,93.581567)"><g
       id="g913"
       style="stroke-width:26.211"><path
         d="M 501.299,132.766 C 495.411,110.736 478.065,93.389 456.035,87.502 416.103,76.801 255.998,76.801 255.998,76.801 c 0,0 -160.105,0 -200.038,10.701 C 33.935,93.389 16.584,110.736 10.696,132.766 0,172.694 0,256.002 0,256.002 c 0,0 0,83.308 10.696,123.232 5.888,22.03 23.239,39.381 45.264,45.268 39.933,10.697 200.038,10.697 200.038,10.697 0,0 160.105,0 200.037,-10.697 22.03,-5.887 39.376,-23.238 45.264,-45.268 C 512,339.31 512,256.002 512,256.002 c 0,0 0,-83.308 -10.701,-123.236 z"
         style="fill:#ed1f24;fill-rule:nonzero;stroke-width:26.211"
         id="path909" /><path
         d="M 204.796,332.803 337.814,256.002 204.796,179.201 Z"
         style="fill:#ffffff;fill-rule:nonzero;stroke-width:26.211"
         id="path911" /></g></g><g
     id="g9948"
     inkscape:export-filename="/media/rizki/Data/Personal/Web/kiandra/dev/assets/img/medsos/instagram.png"
     inkscape:export-xdpi="96"
     inkscape:export-ydpi="96"
     transform="matrix(1.0476612,0,0,1.0476612,12.423548,-6.3185355)"
     style="stroke-width:0.954507"><path
       d="m -195.45328,128.82379 c -2.65256,0 -2.98517,0.0112 -4.02691,0.0588 -1.03957,0.0474 -1.74958,0.21251 -2.37085,0.45397 -0.64225,0.24959 -1.18695,0.58358 -1.72989,1.12656 -0.54298,0.54294 -0.87696,1.08764 -1.12655,1.72989 -0.24147,0.62123 -0.40655,1.33124 -0.45398,2.37081 -0.0475,1.04174 -0.0588,1.37435 -0.0588,4.02691 0,2.65248 0.0112,2.98509 0.0588,4.02684 0.0474,1.03956 0.21251,1.74957 0.45398,2.3708 0.24959,0.64226 0.58357,1.18695 1.12655,1.72997 0.54294,0.54294 1.08764,0.87693 1.72989,1.12652 0.62127,0.24142 1.33128,0.40655 2.37085,0.45397 1.04174,0.0475 1.37435,0.0588 4.02691,0.0588 2.65248,0 2.98509,-0.0113 4.02684,-0.0588 1.03956,-0.0474 1.74957,-0.21255 2.3708,-0.45397 0.64226,-0.24959 1.18695,-0.58358 1.72997,-1.12652 0.54294,-0.54302 0.87693,-1.08771 1.12652,-1.72997 0.24142,-0.62123 0.40655,-1.33124 0.45397,-2.3708 0.0475,-1.04175 0.0588,-1.37436 0.0588,-4.02684 0,-2.65256 -0.0112,-2.98517 -0.0588,-4.02691 -0.0474,-1.03957 -0.21255,-1.74958 -0.45397,-2.37081 -0.24959,-0.64225 -0.58358,-1.18695 -1.12652,-1.72989 -0.54302,-0.54298 -1.08771,-0.87697 -1.72997,-1.12656 -0.62123,-0.24146 -1.33124,-0.40654 -2.3708,-0.45397 -1.04175,-0.0475 -1.37436,-0.0588 -4.02684,-0.0588 z m 0,1.75984 c 2.60785,0 2.91676,0.01 3.94664,0.0569 0.95224,0.0435 1.46939,0.20255 1.81356,0.33628 0.45588,0.17717 0.78124,0.38884 1.12301,0.73061 0.3418,0.34176 0.55343,0.66716 0.73061,1.123 0.13376,0.34417 0.29285,0.86133 0.33631,1.81356 0.047,1.02992 0.0569,1.33884 0.0569,3.94672 0,2.60785 -0.01,2.91676 -0.0569,3.94664 -0.0435,0.95224 -0.20255,1.46939 -0.33631,1.81356 -0.17718,0.45588 -0.38881,0.78124 -0.73061,1.12301 -0.34177,0.3418 -0.66713,0.55343 -1.12301,0.73061 -0.34417,0.13376 -0.86132,0.29285 -1.81356,0.33627 -1.02972,0.047 -1.3386,0.057 -3.94664,0.057 -2.60811,0 -2.91692,-0.01 -3.94672,-0.057 -0.95223,-0.0434 -1.46939,-0.20251 -1.81356,-0.33627 -0.45587,-0.17718 -0.78124,-0.38881 -1.12304,-0.73061 -0.34177,-0.34177 -0.55343,-0.66713 -0.73057,-1.12301 -0.13377,-0.34417 -0.29286,-0.86132 -0.33631,-1.81356 -0.047,-1.02988 -0.0569,-1.33879 -0.0569,-3.94664 0,-2.60788 0.01,-2.9168 0.0569,-3.94672 0.0435,-0.95223 0.20254,-1.46939 0.33631,-1.81356 0.17714,-0.45584 0.3888,-0.78124 0.73057,-1.123 0.3418,-0.34177 0.66717,-0.55344 1.12304,-0.73061 0.34417,-0.13373 0.86133,-0.29282 1.81356,-0.33628 1.02992,-0.047 1.33884,-0.0569 3.94672,-0.0569 z"
       style="clip-rule:evenodd;fill:#584f53;fill-opacity:0.988235;fill-rule:nonzero;stroke-width:0.954507;stroke-linejoin:round;stroke-miterlimit:2"
       id="path828-6" /><path
       d="m -195.45328,141.84631 c -1.79807,0 -3.25567,-1.4576 -3.25567,-3.25559 0,-1.79807 1.4576,-3.25567 3.25567,-3.25567 1.79799,0 3.25559,1.4576 3.25559,3.25567 0,1.79799 -1.4576,3.25559 -3.25559,3.25559 z m 0,-8.27106 c -2.76999,0 -5.01547,2.24548 -5.01547,5.01547 0,2.76992 2.24548,5.01539 5.01547,5.01539 2.76992,0 5.01539,-2.24547 5.01539,-5.01539 0,-2.76999 -2.24547,-5.01547 -5.01539,-5.01547 z"
       style="clip-rule:evenodd;fill:#584f53;fill-opacity:0.988235;fill-rule:nonzero;stroke-width:0.954507;stroke-linejoin:round;stroke-miterlimit:2"
       id="path830-1" /><path
       d="m -189.06769,133.37709 c 0,0.64732 -0.52475,1.17203 -1.17203,1.17203 -0.64729,0 -1.17204,-0.52471 -1.17204,-1.17203 0,-0.64729 0.52475,-1.172 1.17204,-1.172 0.64728,0 1.17203,0.52471 1.17203,1.172 z"
       style="clip-rule:evenodd;fill:#584f53;fill-opacity:0.988235;fill-rule:nonzero;stroke-width:0.954507;stroke-linejoin:round;stroke-miterlimit:2"
       id="path832-8" /></g><path
     d="m -160.16399,140.78935 c -0.23855,-0.11942 -1.41138,-0.69633 -1.63014,-0.77591 -0.21866,-0.0795 -0.37764,-0.11943 -0.53666,0.11944 -0.15908,0.23876 -0.61625,0.7759 -0.7554,0.93508 -0.13916,0.15914 -0.27829,0.17908 -0.51686,0.0596 -0.23859,-0.11929 -1.00722,-0.37115 -1.9184,-1.18368 -0.70914,-0.6323 -1.18798,-1.41334 -1.32714,-1.65209 -0.13915,-0.23875 -0.0147,-0.36781 0.10456,-0.48671 0.10717,-0.10684 0.23855,-0.27852 0.35782,-0.41777 0.11929,-0.13926 0.15903,-0.23876 0.23855,-0.39789 0.0795,-0.15914 0.0396,-0.29845 -0.0199,-0.41783 -0.0596,-0.11942 -0.53671,-1.29317 -0.73551,-1.77068 -0.19361,-0.46502 -0.3903,-0.40208 -0.53674,-0.40939 -0.13899,-0.008 -0.29818,-0.008 -0.4572,-0.008 -0.15908,0 -0.41745,0.0596 -0.63617,0.29839 -0.21868,0.23874 -0.8349,0.81576 -0.8349,1.98954 0,1.1738 0.85477,2.30783 0.97405,2.46703 0.11929,0.15918 1.6822,2.56799 4.07527,3.601 0.56918,0.24572 1.01351,0.3924 1.35998,0.50236 0.57145,0.18147 1.09155,0.15589 1.50258,0.0945 0.45832,-0.0684 1.41141,-0.57696 1.61023,-1.13398 0.19875,-0.55709 0.19875,-1.0346 0.13912,-1.13406 -0.0596,-0.0995 -0.21862,-0.15918 -0.45722,-0.27855 m -4.3528,5.94131 h -0.002 c -1.42397,-5.8e-4 -2.82056,-0.38292 -4.03893,-1.10572 l -0.28977,-0.17197 -3.00342,0.78763 0.8017,-2.92737 -0.18875,-0.30007 c -0.79432,-1.26309 -1.21381,-2.72292 -1.21325,-4.22184 9.3e-4,-4.37392 3.56162,-7.93246 7.93881,-7.93246 2.11953,8.3e-4 4.11193,0.82712 5.61017,2.32656 1.49823,1.49944 2.32289,3.49262 2.32211,5.61227 -9.2e-4,4.37423 -3.56162,7.93297 -7.93547,7.93297 m 6.75368,-14.68469 c -1.80256,-1.80403 -4.19974,-2.79804 -6.75375,-2.79907 -5.26241,0 -9.54541,4.28132 -9.54751,9.54377 -6.8e-4,1.68219 0.43891,3.32428 1.27441,4.77157 l -1.3545,4.9459 5.06127,-1.32717 c 1.39448,0.76038 2.96456,1.16103 4.56251,1.16172 h 0.005 c 5.26192,0 9.54526,-4.28191 9.5474,-9.54438 9.2e-4,-2.55029 -0.99112,-4.94825 -2.79377,-6.75234"
     style="clip-rule:evenodd;fill:#584f53;fill-opacity:0.988235;fill-rule:evenodd;stroke-width:0.999994;stroke-linejoin:round;stroke-miterlimit:2"
     id="path887-0"
     inkscape:export-filename="/media/rizki/Data/Personal/Web/kiandra/dev/assets/img/medsos/whatsapp.png"
     inkscape:export-xdpi="96"
     inkscape:export-ydpi="96" /><g
     id="g13350"
     transform="matrix(1.1096682,0,0,1.1096682,27.552129,-14.306484)"
     inkscape:export-filename="/media/rizki/Data/Personal/Web/kiandra/dev/assets/img/medsos/youtube.png"
     inkscape:export-xdpi="96"
     inkscape:export-ydpi="96"
     style="stroke-width:0.90117"><path
       d="m -232.106,133.88905 c -0.22463,-0.84049 -0.88642,-1.50232 -1.72691,-1.72692 -1.52349,-0.40826 -7.63183,-0.40826 -7.63183,-0.40826 0,0 -6.10833,0 -7.63186,0.40826 -0.8403,0.2246 -1.50228,0.88643 -1.72692,1.72692 -0.40807,1.52333 -0.40807,4.70171 -0.40807,4.70171 0,0 0,3.17837 0.40807,4.70155 0.22464,0.84049 0.88662,1.50247 1.72692,1.72707 1.52353,0.40811 7.63186,0.40811 7.63186,0.40811 0,0 6.10834,0 7.63183,-0.40811 0.84049,-0.2246 1.50228,-0.88658 1.72691,-1.72707 0.40827,-1.52318 0.40827,-4.70155 0.40827,-4.70155 0,0 0,-3.17838 -0.40827,-4.70171 z"
       style="clip-rule:evenodd;fill:#584f53;fill-opacity:0.988235;fill-rule:nonzero;stroke-width:0.90117;stroke-linejoin:round;stroke-miterlimit:2"
       id="path909-7"
       inkscape:export-filename="/media/rizki/Data/Personal/Web/kiandra/dev/assets/img/medsos/youtube.png"
       inkscape:export-xdpi="96"
       inkscape:export-ydpi="96" /><path
       d="m -243.4182,141.52087 5.07491,-2.93011 -5.07491,-2.93012 z"
       style="clip-rule:evenodd;fill:#ffffff;fill-rule:nonzero;stroke-width:0.90117;stroke-linejoin:round;stroke-miterlimit:2"
       id="path911-5"
       inkscape:export-filename="/media/rizki/Data/Personal/Web/kiandra/dev/assets/img/medsos/youtube.png"
       inkscape:export-xdpi="96"
       inkscape:export-ydpi="96" /></g><image
     width="18"
     height="23"
     preserveAspectRatio="none"
     style="image-rendering:optimizeQuality"
     xlink:href="../../../../../template/girly/assets/img/pinterest.png"
     id="image1051"
     x="-282.25067"
     y="93.384094" /><g
     style="clip-rule:evenodd;fill:#584f53;fill-opacity:0.988235;fill-rule:evenodd;stroke-width:25.7547;stroke-linejoin:round;stroke-miterlimit:2"
     id="g10003"
     transform="matrix(0.03882768,0,0,0.03882768,-225.77067,128.93769)"
     inkscape:export-filename="/media/rizki/Data/Personal/Web/kiandra/dev/assets/img/medsos/facebook.png"
     inkscape:export-xdpi="96"
     inkscape:export-ydpi="96"><path
       d="m 374.245,285.825 14.104,-91.961 h -88.233 v -59.677 c 0,-25.159 12.325,-49.682 51.845,-49.682 h 40.117 V 6.214 C 392.078,6.214 355.67,0 320.864,0 248.194,0 200.699,44.042 200.699,123.775 v 70.089 h -80.777 v 91.961 h 80.777 v 222.31 c 16.197,2.542 32.798,3.865 49.709,3.865 16.911,0 33.512,-1.323 49.708,-3.865 v -222.31 z"
       style="fill:#584f53;fill-opacity:0.988235;fill-rule:nonzero;stroke-width:25.7547"
       id="path9994" /></g></svg>
